<svg width="1000" height="1415" viewBox="0 0 1000 1415" fill="none" xmlns="http://www.w3.org/2000/svg" role="img" aria-label="TRAVLISH Heritage English Experience program poster">
  <defs>
    <linearGradient id="paper" x1="0" y1="0" x2="1000" y2="1415" gradientUnits="userSpaceOnUse">
      <stop stop-color="#FDFBF5"/>
      <stop offset="1" stop-color="#EEE5D5"/>
    </linearGradient>
    <linearGradient id="navy" x1="0" y1="0" x2="1" y2="1">
      <stop stop-color="#0C3864"/>
      <stop offset="1" stop-color="#061D3D"/>
    </linearGradient>
    <linearGradient id="gold" x1="0" y1="0" x2="1" y2="1">
      <stop stop-color="#E2B555"/>
      <stop offset="1" stop-color="#AB741B"/>
    </linearGradient>
    <filter id="shadow" x="-20%" y="-20%" width="140%" height="140%">
      <feDropShadow dx="0" dy="12" stdDeviation="14" flood-color="#092D55" flood-opacity=".16"/>
    </filter>
    <pattern id="dots" width="12" height="12" patternUnits="userSpaceOnUse">
      <circle cx="2" cy="2" r="1.4" fill="#0C3864" fill-opacity=".12"/>
    </pattern>
  </defs>

  <rect width="1000" height="1415" fill="url(#paper)"/>
  <rect width="1000" height="1415" fill="url(#dots)" opacity=".45"/>
  <path d="M0 0H1000V48C810 73 678 50 496 72C315 94 160 85 0 109V0Z" fill="#0A315C"/>
  <path d="M0 108C168 84 309 94 496 72C678 50 810 73 1000 48V82C783 113 654 83 494 111C310 143 174 124 0 150V108Z" fill="url(#gold)"/>

  <image href="/travlish-brandmark.svg" x="60" y="62" width="450" height="162"/>
  <text x="520" y="105" fill="#082D59" font-family="Arial, sans-serif" font-size="25" font-weight="700" letter-spacing="1">TRAVELING IN ENGLISH TO</text>
  <text x="520" y="139" fill="#082D59" font-family="Arial, sans-serif" font-size="25" font-weight="700" letter-spacing="1">INDONESIA'S HERITAGE DESTINATIONS</text>
  <path d="M518 164H936" stroke="#C28A2A" stroke-width="8" stroke-linecap="round"/>
  <text x="522" y="195" fill="#0A315C" font-family="Arial, sans-serif" font-size="22" font-weight="700">Explore Heritage. Speak English. Create Digital Impact.</text>

  <text x="55" y="355" fill="#0A315C" font-family="Arial Black, Arial, sans-serif" font-size="132" font-weight="900" letter-spacing="-8">HERITAGE</text>
  <text x="55" y="493" fill="url(#gold)" font-family="Arial Black, Arial, sans-serif" font-size="137" font-weight="900" letter-spacing="-8">ENGLISH</text>
  <text x="62" y="575" fill="#0A315C" font-family="cursive" font-size="91" font-style="italic">Experience</text>
  <path d="M54 604C230 580 411 590 612 604L572 655C396 637 221 640 55 665L54 604Z" fill="url(#navy)"/>
  <text x="81" y="638" fill="#F6D37E" font-family="Arial, sans-serif" font-size="26" font-weight="700">EXPLORE LOCAL HERITAGE, BUILD GLOBAL COMMUNICATION</text>

  <g filter="url(#shadow)">
    <rect x="650" y="248" width="284" height="412" rx="28" fill="#0A315C"/>
    <path d="M680 591V427H713V350H735V427H760V306H789V427H815V374H838V427H872V591H680Z" fill="#E5B85B"/>
    <path d="M671 426H881M671 469H881M671 512H881" stroke="#F9ECD0" stroke-opacity=".68" stroke-width="5"/>
    <path d="M764 305L774 244L785 305" fill="#E5B85B"/>
    <path d="M704 350L724 321L744 350M805 375L826 345L847 375" stroke="#E5B85B" stroke-width="9"/>
    <circle cx="735" cy="294" r="7" fill="#E5B85B"/>
    <circle cx="848" cy="285" r="7" fill="#E5B85B"/>
    <path d="M674 625H909" stroke="#E5B85B" stroke-width="6" stroke-linecap="round"/>
    <text x="690" y="635" fill="#FDFBF5" font-family="Arial, sans-serif" font-size="19" font-weight="700">HERITAGE EXPLORATION</text>
  </g>

  <text x="58" y="733" fill="#0A315C" font-family="Arial, sans-serif" font-size="25" font-weight="600">Program experiential learning untuk mengeksplorasi sejarah dan budaya</text>
  <text x="58" y="767" fill="#0A315C" font-family="Arial, sans-serif" font-size="25" font-weight="600">Indonesia melalui public speaking, digital storytelling, dan content creation.</text>

  <g>
    <rect x="56" y="814" width="888" height="194" rx="24" fill="#FFFDF9" stroke="#D6B066" stroke-width="2"/>
    <rect x="56" y="814" width="344" height="45" rx="22" fill="url(#navy)"/>
    <text x="80" y="844" fill="#F4C35B" font-family="Arial, sans-serif" font-size="23" font-weight="700">PROGRAM OBJECTIVES</text>
    <text x="84" y="892" fill="#0A315C" font-family="Arial, sans-serif" font-size="20" font-weight="700">Peserta akan mampu:</text>
    <text x="84" y="927" fill="#17436E" font-family="Arial, sans-serif" font-size="19">✓ Speak English with confidence</text>
    <text x="84" y="958" fill="#17436E" font-family="Arial, sans-serif" font-size="19">✓ Create professional digital content</text>
    <text x="84" y="989" fill="#17436E" font-family="Arial, sans-serif" font-size="19">✓ Build a personal branding portfolio</text>
    <path d="M442 858V987" stroke="#D9C59F" stroke-width="2"/>
    <text x="476" y="892" fill="#0A315C" font-family="Arial, sans-serif" font-size="18" font-weight="700">3 SIGNATURE PILOT PROJECTS</text>
    <text x="476" y="927" fill="#17436E" font-family="Arial, sans-serif" font-size="18">1. Kota Lama Surabaya</text>
    <text x="476" y="958" fill="#17436E" font-family="Arial, sans-serif" font-size="18">2. Ampel Heritage Experience</text>
    <text x="476" y="989" fill="#17436E" font-family="Arial, sans-serif" font-size="18">3. Kampung Heritage Peneleh</text>
  </g>

  <g transform="translate(56 1048)">
    <rect width="888" height="185" rx="24" fill="#0A315C"/>
    <text x="42" y="47" fill="#F4C35B" font-family="Arial, sans-serif" font-size="21" font-weight="700" letter-spacing="2">5 HOURS INTENSIVE EXPERIENCE</text>
    <g fill="#FDFBF5" font-family="Arial, sans-serif" text-anchor="middle">
      <circle cx="104" cy="104" r="37" fill="#E0AF4F"/>
      <circle cx="274" cy="104" r="37" fill="#E0AF4F"/>
      <circle cx="444" cy="104" r="37" fill="#E0AF4F"/>
      <circle cx="614" cy="104" r="37" fill="#E0AF4F"/>
      <circle cx="784" cy="104" r="37" fill="#E0AF4F"/>
      <text x="104" y="111" font-size="28" font-weight="700">1</text>
      <text x="274" y="111" font-size="28" font-weight="700">2</text>
      <text x="444" y="111" font-size="28" font-weight="700">3</text>
      <text x="614" y="111" font-size="28" font-weight="700">4</text>
      <text x="784" y="111" font-size="28" font-weight="700">5</text>
      <text x="104" y="163" font-size="14">Speak</text>
      <text x="274" y="163" font-size="14">Explore</text>
      <text x="444" y="163" font-size="14">Create</text>
      <text x="614" y="163" font-size="14">Edit</text>
      <text x="784" y="163" font-size="14">Inspire</text>
    </g>
    <path d="M146 104H232M316 104H402M486 104H572M656 104H742" stroke="#F4C35B" stroke-width="3" stroke-dasharray="7 7"/>
  </g>

  <path d="M0 1284C178 1257 358 1288 505 1266C689 1239 821 1259 1000 1237V1415H0V1284Z" fill="url(#navy)"/>
  <text x="58" y="1342" fill="#F6D37E" font-family="Arial, sans-serif" font-size="27" font-weight="700">LEARN • EXPLORE • SPEAK • CREATE • INSPIRE</text>
  <text x="58" y="1384" fill="#FFFDF9" font-family="Arial, sans-serif" font-size="19">Heritage English Experience by TRAVLISH Event Organizer</text>
  <text x="944" y="1384" fill="#F6D37E" font-family="Arial, sans-serif" font-size="19" text-anchor="end">SURABAYA, INDONESIA</text>
</svg>