<svg width="720" height="260" viewBox="0 0 720 260" fill="none" xmlns="http://www.w3.org/2000/svg" role="img" aria-label="Travlish Event Organizer">
  <path d="M68 116C68 58 114 17 174 17C234 17 279 57 279 116" stroke="#C7963E" stroke-width="9" stroke-linecap="round"/>
  <path d="M82 117C82 66 123 30 174 30C225 30 265 66 265 117" stroke="#062D5B" stroke-width="13" stroke-linecap="round"/>
  <path d="M100 114C113 83 139 64 174 64C209 64 236 84 249 114" stroke="#F2E8D6" stroke-width="24" stroke-linecap="round"/>
  <path d="M160 112V46H185V112H160Z" fill="#C7963E"/>
  <path d="M155 47L172.5 23L190 47H155Z" fill="#C7963E"/>
  <path d="M164 67H181M164 83H181M164 99H181" stroke="#062D5B" stroke-width="4"/>
  <path d="M106 112V75L123 57L140 75V112" fill="#062D5B"/>
  <path d="M100 77H145M112 112V89H122V112M127 112V89H137V112" stroke="#F2E8D6" stroke-width="3"/>
  <path d="M205 112V81L225 63L246 81V112" fill="#062D5B"/>
  <path d="M199 83H252M215 112V92H225V112M231 112V92H241V112" stroke="#F2E8D6" stroke-width="3"/>
  <path d="M257 91C270 79 283 77 298 82C284 85 275 91 268 102C280 94 291 94 305 101C290 103 281 110 276 123" stroke="#062D5B" stroke-width="5" stroke-linecap="round"/>
  <path d="M236 38L269 22L296 37L266 34L244 49L236 38Z" fill="#062D5B"/>
  <path d="M83 121H268" stroke="#062D5B" stroke-width="9" stroke-linecap="round"/>
  <text x="326" y="109" fill="#062D5B" font-family="Georgia, serif" font-size="77" font-weight="700" letter-spacing="2">TRAVLISH</text>
  <path d="M329 127H682" stroke="#C7963E" stroke-width="4"/>
  <text x="330" y="157" fill="#062D5B" font-family="Arial, sans-serif" font-size="20" font-weight="700" letter-spacing="7">EVENT ORGANIZER</text>
  <text x="328" y="194" fill="#3A5575" font-family="Arial, sans-serif" font-size="15" font-weight="500">Traveling in English to Indonesia's Heritage Destinations</text>
</svg>